<?xml version="1.0" encoding="UTF-8"?>
<!DOCTYPE svg PUBLIC "-//W3C//DTD SVG 1.1//EN" "http://www.w3.org/Graphics/SVG/1.1/DTD/svg11.dtd">
<!-- Creator: CorelDRAW -->
<svg xmlns="http://www.w3.org/2000/svg" xml:space="preserve" width="2048px" height="2048px" style="shape-rendering:geometricPrecision; text-rendering:geometricPrecision; image-rendering:optimizeQuality; fill-rule:evenodd; clip-rule:evenodd"
viewBox="0 0 2048 2048"
 xmlns:xlink="http://www.w3.org/1999/xlink">
 <defs>
  <style type="text/css">
   <![CDATA[
    .fil2 {fill:none}
    .fil1 {fill:#424242}
    .fil0 {fill:#424242;fill-rule:nonzero}
   ]]>
  </style>
 </defs>
 <g id="Layer_x0020_1">
  <metadata id="CorelCorpID_0Corel-Layer"/>
  <g id="_306354424">
   <path id="_306354904" class="fil0" d="M588.706 557.4c-102.58,182.216 -29.9244,365.21 38.537,537.615 57.9048,145.823 112.458,283.232 37.3548,395.585l818.389 0c62.8949,-127.605 6.60001,-269.407 -52.8355,-419.084 -66.6957,-167.958 -137.736,-346.917 -22.2402,-514.115l-819.205 0z"/>
   <polygon id="_306354208" class="fil0" points="568.03,313.897 1479.97,313.897 1479.97,525.401 568.03,525.401 "/>
   <polygon id="_306354400" class="fil0" points="568.03,1522.6 1479.97,1522.6 1479.97,1734.1 568.03,1734.1 "/>
   <rect id="_306353848" class="fil1" x="472.029" y="255.999" width="64.0016" height="327.299"/>
   <rect id="_306354232" class="fil1" x="1511.97" y="255.999" width="64.0016" height="327.299"/>
   <rect id="_306354280" class="fil1" x="1511.97" y="1464.7" width="64.0016" height="327.299"/>
   <rect id="_306354160" class="fil1" x="472.029" y="1464.7" width="64.0016" height="327.299"/>
  </g>
 </g>
 <rect class="fil2" width="2048" height="2048"/>
</svg>
