<svg xmlns="http://www.w3.org/2000/svg" width="128" height="128" viewBox="0 0 128 128">
  <title>SCISSORS</title>
  <g>
    <path d="M112.437,87.271a21.484,21.484,0,0,0-37.85-1.748l-3.055-4.887,2.546-1.592a1.751,1.751,0,0,0,.555-2.413l-.96-1.533,29.982-47.962a11.919,11.919,0,0,0,1.521-9.016l0-.012a11.988,11.988,0,0,0-5.286-7.422A4.475,4.475,0,0,0,93.706,12.1L64,59.62,34.3,12.107A4.477,4.477,0,0,0,28.1,10.691a11.933,11.933,0,0,0-3.758,16.447L54.325,75.1l-.958,1.533a1.751,1.751,0,0,0,.555,2.413l2.546,1.592-3.055,4.887a21.489,21.489,0,1,0-.249,22.385L64,90.572l10.835,17.335a21.5,21.5,0,0,0,14.544,9.777,21.246,21.246,0,0,0,3.638.313,21.481,21.481,0,0,0,19.42-30.726ZM27.315,25.284a8.432,8.432,0,0,1,2.652-11.63.976.976,0,0,1,1.359.3L61.937,62.922,56.389,71.8ZM50.2,106.053a17.98,17.98,0,1,1,1.423-16.3,1.749,1.749,0,0,0,3.1.27l5.64-9.02a1.751,1.751,0,0,0-.556-2.412L57.263,77,96.677,13.953a.977.977,0,0,1,1.347-.3,8.433,8.433,0,0,1,2.662,11.634Zm54.059,4.524A17.976,17.976,0,0,1,77.8,106.052L66.064,87.271l2.744-4.389,4.468,7.146a1.749,1.749,0,0,0,3.105-.27,17.982,17.982,0,1,1,27.874,20.819Z"/>
    <path d="M96.05,83.533a13.322,13.322,0,1,0,4.067,24.282h0A13.327,13.327,0,0,0,96.05,83.533Zm2.213,21.313A9.825,9.825,0,1,1,87.848,88.184a9.742,9.742,0,0,1,5.185-1.5,9.909,9.909,0,0,1,2.229.256,9.828,9.828,0,0,1,3,17.9Z"/>
    <path d="M42.008,85.216a13.317,13.317,0,1,0,4.246,18.372h0a13.329,13.329,0,0,0-4.246-18.371Zm1.278,16.517A9.829,9.829,0,1,1,32.738,86.942a9.833,9.833,0,0,1,10.548,14.791Z"/>
    <circle cx="64" cy="74.708" r="1.75"/>
  </g>
</svg>
